<?xml version="1.0" standalone="no"?>
<!DOCTYPE svg PUBLIC "-//W3C//DTD SVG 20010904//EN"
 "http://www.w3.org/TR/2001/REC-SVG-20010904/DTD/svg10.dtd">
<svg version="1.0" xmlns="http://www.w3.org/2000/svg"
 width="512.000000pt" height="512.000000pt" viewBox="0 0 512.000000 512.000000"
 preserveAspectRatio="xMidYMid meet">

<g transform="translate(0.000000,512.000000) scale(0.100000,-0.100000)"
fill="#000000" stroke="none">
<path d="M2274 4896 l-279 -183 -3 -264 -3 -264 -295 -185 c-163 -102 -299
-184 -303 -183 -4 1 -119 74 -255 163 -136 89 -254 164 -261 166 -7 3 -140
-77 -294 -177 l-281 -183 0 -290 0 -291 255 -165 255 -165 0 -275 0 -275 -255
-165 -255 -165 0 -291 0 -291 279 -181 c153 -100 283 -182 288 -182 6 0 123
74 261 164 l251 164 303 -219 303 -219 5 -267 5 -266 279 -182 279 -183 46 29
c25 16 152 98 281 183 l235 153 3 264 2 264 318 200 c223 142 317 206 316 218
-1 10 3 14 10 10 6 -4 116 -76 245 -160 129 -84 239 -153 244 -153 6 0 135 82
288 181 l279 182 0 291 0 291 -255 165 -255 165 1 275 0 275 254 165 255 165
0 291 0 291 -281 182 c-154 101 -286 180 -294 178 -7 -3 -124 -78 -260 -166
l-246 -161 -197 116 c-108 65 -247 147 -309 183 l-112 66 -3 264 -3 264 -235
154 c-129 84 -256 166 -281 182 l-45 29 -280 -182z m494 -81 c153 -99 198
-133 189 -141 -7 -7 -100 -68 -206 -138 l-195 -125 -35 22 c-20 12 -114 72
-210 135 l-173 113 153 100 c85 55 177 116 204 134 28 19 55 33 61 32 6 -1
101 -60 212 -132z m-468 -364 l195 -128 3 -202 2 -202 -58 38 c-33 21 -125 81
-205 133 l-147 95 0 198 c0 108 3 197 8 196 4 0 95 -58 202 -128z m718 -68
l-3 -198 -95 -63 c-52 -34 -143 -94 -203 -132 l-107 -70 2 202 3 202 195 127
c107 71 198 128 203 129 4 0 6 -89 5 -197z m-719 -458 l253 -165 37 22 c20 12
135 87 255 166 121 78 225 141 231 140 6 -2 147 -84 313 -182 l302 -179 -2
-231 -3 -231 -306 -154 -306 -154 -255 166 c-141 92 -259 167 -264 167 -4 0
-122 -75 -261 -166 l-255 -166 -291 148 c-161 81 -298 151 -305 157 -9 7 -12
61 -10 230 l3 221 299 188 c165 103 302 188 306 188 4 0 120 -74 259 -165z
m-1222 -31 l207 -136 -205 -134 c-112 -73 -207 -134 -211 -134 -4 0 -99 60
-212 134 l-206 134 208 136 c114 75 208 136 209 136 1 0 96 -61 210 -136z
m3393 -4 c96 -62 180 -118 187 -124 8 -8 -40 -44 -190 -141 -110 -71 -204
-131 -208 -133 -5 -2 -101 56 -213 130 -157 102 -202 136 -193 144 7 7 99 69
206 138 179 116 196 125 215 113 12 -8 100 -65 196 -127z m-3667 -489 c4 -4 6
-96 5 -204 l-3 -196 -200 132 -200 132 -3 185 c-1 101 0 190 2 197 4 8 71 -30
198 -113 106 -69 196 -129 201 -133z m527 60 l0 -199 -197 -128 c-108 -71
-200 -130 -205 -132 -4 -2 -8 86 -8 195 l0 199 203 132 c111 72 203 132 205
132 1 0 2 -89 2 -199z m2688 54 l182 -118 0 -199 c0 -156 -3 -198 -12 -192 -7
4 -100 63 -205 132 l-193 125 0 199 0 200 23 -14 c12 -8 104 -68 205 -133z
m702 -53 c0 -103 -4 -192 -8 -197 -4 -6 -86 -62 -182 -124 -96 -63 -185 -121
-197 -129 l-23 -14 0 200 0 200 198 129 c108 72 200 128 205 126 4 -2 7 -88 7
-191z m-3029 -444 l299 -153 0 -261 0 -261 253 -164 252 -165 3 -344 2 -345
-122 -79 c-68 -44 -171 -111 -230 -149 l-107 -69 -303 220 -303 219 -5 267 -5
266 -250 163 -250 163 0 274 0 274 225 147 c124 81 229 148 234 148 4 1 143
-68 307 -151z m1079 12 c96 -62 180 -118 187 -124 9 -8 -39 -44 -194 -145
l-206 -133 -31 18 c-16 9 -111 70 -210 135 l-179 117 84 55 c46 30 140 91 209
135 112 74 126 80 145 68 11 -7 99 -64 195 -126z m1200 -9 l225 -147 0 -274 0
-274 -250 -164 -250 -163 -5 -292 -5 -292 -305 -192 c-168 -106 -311 -191
-319 -188 -7 3 -112 69 -232 148 l-219 142 2 345 3 345 253 164 252 164 0 261
0 261 303 152 c166 84 307 152 312 152 6 0 111 -66 235 -148z m-1652 -366
l182 -118 0 -199 c0 -157 -3 -198 -12 -192 -7 4 -100 63 -205 132 l-193 125 0
200 0 199 23 -14 c12 -8 104 -68 205 -133z m702 -53 l0 -199 -182 -118 c-101
-65 -193 -125 -205 -133 l-23 -14 0 200 0 200 202 131 c111 72 204 131 205
131 2 0 3 -89 3 -198z m-1950 -495 c102 -66 191 -125 198 -132 10 -9 -27 -38
-183 -139 -108 -70 -203 -130 -210 -132 -14 -6 -427 257 -419 266 25 24 411
266 419 262 6 -3 93 -60 195 -125z m3473 -57 l128 -83 -203 -134 c-112 -73
-210 -132 -218 -130 -31 8 -410 261 -402 269 5 5 98 66 207 137 l198 129 81
-52 c45 -29 139 -90 209 -136z m-3225 -585 c-17 -15 -386 -255 -393 -255 -3 0
-5 89 -5 198 l0 197 203 131 202 132 3 -196 c2 -149 -1 -199 -10 -207z m2705
255 l177 -115 0 -197 c0 -109 -2 -198 -5 -198 -2 0 -94 58 -202 129 l-198 129
-3 202 -2 202 28 -18 c16 -11 108 -71 205 -134z m-3408 14 l195 -126 0 -200
c0 -156 -3 -198 -12 -192 -7 4 -100 63 -205 132 l-193 125 0 194 c0 124 4 193
10 193 6 0 98 -57 205 -126z m4105 -68 l0 -194 -192 -124 c-106 -69 -199 -128
-205 -132 -10 -6 -13 35 -13 192 l0 199 193 126 c105 69 198 126 205 126 9 1
12 -44 12 -193z m-1955 -566 c105 -68 194 -126 198 -130 8 -7 -393 -272 -410
-272 -15 1 -414 265 -408 270 26 27 404 262 415 259 9 -2 101 -59 205 -127z
m-455 -372 l190 -123 0 -197 c0 -109 -3 -198 -7 -198 -5 1 -96 58 -203 129
l-195 127 -3 198 c-2 178 -1 198 13 192 9 -3 101 -61 205 -128z m708 -64 l-3
-197 -195 -128 c-107 -70 -198 -128 -202 -128 -5 -1 -8 88 -8 197 l0 197 197
128 c109 70 201 127 205 127 5 0 7 -88 6 -196z"/>
<path d="M1640 4418 c-19 -12 -37 -23 -39 -24 -2 -2 8 -23 23 -48 l26 -45 45
27 44 26 -23 40 c-13 22 -28 41 -32 43 -5 1 -25 -7 -44 -19z"/>
<path d="M3366 4398 c-14 -23 -24 -43 -23 -44 1 -1 21 -13 44 -28 l42 -26 27
46 c14 24 25 46 23 48 -14 10 -77 46 -82 46 -3 0 -17 -19 -31 -42z"/>
<path d="M1460 4309 c-19 -12 -36 -23 -38 -24 -6 -6 43 -85 52 -85 7 0 63 31
84 46 6 4 -48 84 -56 84 -4 0 -23 -10 -42 -21z"/>
<path d="M3544 4289 c-14 -22 -24 -42 -22 -43 21 -15 77 -46 84 -46 5 0 20 19
33 41 19 34 21 43 10 51 -22 14 -67 38 -73 38 -3 0 -17 -18 -32 -41z"/>
<path d="M1287 4206 c-20 -13 -40 -25 -43 -28 -6 -6 42 -88 51 -88 3 0 24 11
46 25 l40 26 -22 37 c-32 53 -31 53 -72 28z"/>
<path d="M3725 4184 c-15 -25 -25 -47 -23 -48 16 -12 77 -46 82 -46 7 0 59 81
54 85 -2 1 -22 14 -45 28 l-42 26 -26 -45z"/>
</g>
</svg>
